<svg width="20" height="20" viewBox="0 0 20 20" fill="none" xmlns="http://www.w3.org/2000/svg">
<g clip-path="url(#clip0_1125_43799)">
<path fill-rule="evenodd" clip-rule="evenodd" d="M13.3333 7.5026L15.9751 4.42059C16.9017 3.33947 16.1336 1.66927 14.7096 1.66927L3.33334 1.66927L3.33334 13.3359L14.7096 13.3359C16.1336 13.3359 16.9017 11.6657 15.9751 10.5846L13.3333 7.5026ZM5.00001 11.6693L14.7096 11.6693L11.1382 7.5026L14.7096 3.33594L5.00001 3.33594L5.00001 11.6693Z" fill="#777E91"/>
<path d="M3.33334 0.833334C3.33334 0.373096 3.70644 0 4.16668 0C4.62691 0 5.00001 0.373096 5.00001 0.833333L5.00001 19.1667C5.00001 19.6269 4.62691 20 4.16668 20C3.70644 20 3.33334 19.6269 3.33334 19.1667L3.33334 0.833334Z" fill="#777E91"/>
</g>
<defs>
<clipPath id="clip0_1125_43799">
<rect width="20" height="20" fill="white"/>
</clipPath>
</defs>
</svg>
