<svg width="20" height="20" viewBox="0 0 20 20" fill="none" xmlns="http://www.w3.org/2000/svg">
<path fill-rule="evenodd" clip-rule="evenodd" d="M9.99305 3.47702L10 3.4734L10.0073 3.47717L13.7185 5.7039L15 6.476V15.6677C15 16.1619 14.9987 16.4324 14.9828 16.6267L14.9809 16.6486L14.959 16.6505C14.7647 16.6664 14.4942 16.6677 14 16.6677H6.00002C5.50581 16.6677 5.23539 16.6664 5.04108 16.6505L5.0191 16.6486L5.01719 16.6267C5.00132 16.4324 5.00002 16.1619 5.00002 15.6677V6.47602L6.27683 5.70675L9.99305 3.47702ZM5.4181 4.27834L1.23796 6.78642C0.843315 7.02321 0.715344 7.53509 0.952134 7.92974C1.18892 8.32439 1.70081 8.45236 2.09546 8.21557L3.33335 7.47283V15.6677C3.33335 16.6011 3.33335 17.0679 3.51501 17.4244C3.6748 17.738 3.92977 17.9929 4.24337 18.1527C4.59989 18.3344 5.0666 18.3344 6.00002 18.3344H14C14.9334 18.3344 15.4002 18.3344 15.7567 18.1527C16.0703 17.9929 16.3252 17.738 16.485 17.4244C16.6667 17.0679 16.6667 16.6011 16.6667 15.6677V7.4728L17.9046 8.21557C18.2993 8.45236 18.8112 8.32439 19.048 7.92974C19.2847 7.53509 19.1568 7.02321 18.7621 6.78642L14.5772 4.27545L11.3762 2.34688C11.1435 2.20667 10.9649 2.09907 10.8135 2.01816C10.7782 1.9984 10.7423 1.98002 10.706 1.96302C10.58 1.90156 10.4709 1.86065 10.3587 1.83593C10.1224 1.78386 9.87763 1.78386 9.64135 1.83593C9.52888 1.86071 9.41943 1.90177 9.29305 1.96351C9.25738 1.98022 9.22216 1.99827 9.18747 2.01765C9.03591 2.09862 8.85706 2.20638 8.62386 2.34688L5.4181 4.27834Z" fill="#777E91"/>
<path fill-rule="evenodd" clip-rule="evenodd" d="M10.8333 16.6693V13.3359C10.8333 12.8757 10.4602 12.5026 10 12.5026C9.53976 12.5026 9.16667 12.8757 9.16667 13.3359V16.6693H10.8333ZM10 10.8359C8.61929 10.8359 7.5 11.9552 7.5 13.3359V18.3359H12.5V13.3359C12.5 11.9552 11.3807 10.8359 10 10.8359Z" fill="#777E91"/>
</svg>
